<?xml version="1.0"?>
<svg version="1.1" id="topsvg"
xmlns="http://www.w3.org/2000/svg" xmlns:xlink="http://www.w3.org/1999/xlink"
xmlns:cml="http://www.xml-cml.org/schema" x="0" y="0" width="200px" height="200px" viewBox="0 0 100 100">
<title> - Open Babel Depiction</title>
<rect x="0" y="0" width="100" height="100" fill="white"/>
<g transform="translate(0,0)">
<svg width="100" height="100" x="0" y="0" viewBox="0 0 775.372 726.944"
font-family="sans-serif" stroke="rgb(0,0,0)" stroke-width="2"  stroke-linecap="round">
<line x1="498.2" y1="71.5" x2="498.2" y2="94.9" opacity="1.0" stroke="rgb(0,0,0)"  stroke-width="2.0"/>
<line x1="498.2" y1="71.5" x2="486.5" y2="51.3" opacity="1.0" stroke="rgb(0,0,0)"  stroke-width="2.0"/>
<line x1="498.2" y1="71.5" x2="474.8" y2="71.5" opacity="1.0" stroke="rgb(0,0,0)"  stroke-width="2.0"/>
<line x1="498.2" y1="71.5" x2="518.4" y2="59.8" opacity="1.0" stroke="rgb(0,0,0)"  stroke-width="2.0"/>
<line x1="486.9" y1="114.4" x2="466.7" y2="126.1" opacity="1.0" stroke="rgb(0,0,0)"  stroke-width="2.0"/>
<line x1="435.1" y1="107.9" x2="435.1" y2="84.5" opacity="1.0" stroke="rgb(0,0,0)"  stroke-width="2.0"/>
<line x1="403.6" y1="126.1" x2="383.4" y2="114.4" opacity="1.0" stroke="rgb(0,0,0)"  stroke-width="2.0"/>
<line x1="403.6" y1="162.5" x2="383.4" y2="174.2" opacity="1.0" stroke="rgb(0,0,0)"  stroke-width="2.0"/>
<line x1="435.1" y1="180.7" x2="435.1" y2="217.1" opacity="1.0" stroke="rgb(0,0,0)"  stroke-width="2.0"/>
<line x1="436.6" y1="219.7" x2="405.1" y2="237.8" opacity="1.0" stroke="rgb(0,0,0)"  stroke-width="2.0"/>
<line x1="433.6" y1="214.5" x2="402.1" y2="232.6" opacity="1.0" stroke="rgb(0,0,0)"  stroke-width="2.0"/>
<line x1="435.1" y1="217.1" x2="455.4" y2="228.7" opacity="1.0" stroke="rgb(0,0,0)"  stroke-width="2.0"/>
<line x1="403.6" y1="235.2" x2="403.6" y2="271.6" opacity="1.0" stroke="rgb(0,0,0)"  stroke-width="2.0"/>
<line x1="403.6" y1="235.2" x2="383.4" y2="223.6" opacity="1.0" stroke="rgb(0,0,0)"  stroke-width="2.0"/>
<line x1="405.1" y1="274.2" x2="384.9" y2="285.9" opacity="1.0" stroke="rgb(0,0,0)"  stroke-width="2.0"/>
<line x1="402.1" y1="269.0" x2="381.9" y2="280.7" opacity="1.0" stroke="rgb(0,0,0)"  stroke-width="2.0"/>
<line x1="403.6" y1="271.6" x2="423.9" y2="283.3" opacity="1.0" stroke="rgb(0,0,0)"  stroke-width="2.0"/>
<line x1="435.1" y1="302.8" x2="435.1" y2="362.6" opacity="1.0" stroke="rgb(0,0,0)"  stroke-width="2.0"/>
<line x1="446.4" y1="283.3" x2="455.4" y2="278.1" opacity="1.0" stroke="rgb(0,0,0)"  stroke-width="2.0"/>
<polygon points="435.148985 362.595141 414.157094 375.619836 411.095627 368.228800 " stroke-width="2.000000" fill="rgb(0,0,0)"  stroke="rgb(0,0,0)" />
<line x1="425.7" y1="397.7" x2="409.2" y2="414.3" opacity="1.0" stroke="rgb(0,0,0)"  stroke-width="2.0"/>
<line x1="420.8" y1="397.3" x2="421.2" y2="395.7" opacity="1.0" stroke="rgb(0,0,0)"  stroke-width="1.0"/>
<line x1="416.9" y1="396.9" x2="417.6" y2="394.1" opacity="1.0" stroke="rgb(0,0,0)"  stroke-width="1.0"/>
<line x1="412.9" y1="396.5" x2="414.0" y2="392.5" opacity="1.0" stroke="rgb(0,0,0)"  stroke-width="1.0"/>
<line x1="409.0" y1="396.1" x2="410.4" y2="390.8" opacity="1.0" stroke="rgb(0,0,0)"  stroke-width="1.0"/>
<line x1="405.1" y1="395.7" x2="406.8" y2="389.2" opacity="1.0" stroke="rgb(0,0,0)"  stroke-width="1.0"/>
<line x1="401.1" y1="395.3" x2="403.2" y2="387.6" opacity="1.0" stroke="rgb(0,0,0)"  stroke-width="1.0"/>
<line x1="387.4" y1="420.1" x2="364.9" y2="414.1" opacity="1.0" stroke="rgb(0,0,0)"  stroke-width="2.0"/>
<polygon points="364.857515 414.052068 357.709727 390.404420 365.641286 389.360210 " stroke-width="2.000000" fill="rgb(0,0,0)"  stroke="rgb(0,0,0)" />
<line x1="333.3" y1="395.9" x2="321.7" y2="375.6" opacity="1.0" stroke="rgb(0,0,0)"  stroke-width="2.0"/>
<line x1="333.3" y1="395.9" x2="363.2" y2="344.1" opacity="1.0" stroke="rgb(0,0,0)"  stroke-width="2.0"/>
<line x1="301.8" y1="414.1" x2="278.5" y2="414.1" opacity="1.0" stroke="rgb(0,0,0)"  stroke-width="2.0"/>
<line x1="301.8" y1="414.1" x2="290.1" y2="393.8" opacity="1.0" stroke="rgb(0,0,0)"  stroke-width="2.0"/>
<line x1="276.2" y1="436.6" x2="277.0" y2="435.2" opacity="1.0" stroke="rgb(0,0,0)"  stroke-width="1.0"/>
<line x1="255.7" y1="425.5" x2="257.2" y2="423.0" opacity="1.0" stroke="rgb(0,0,0)"  stroke-width="1.0"/>
<line x1="235.3" y1="414.4" x2="237.3" y2="410.8" opacity="1.0" stroke="rgb(0,0,0)"  stroke-width="1.0"/>
<line x1="214.8" y1="403.3" x2="217.5" y2="398.6" opacity="1.0" stroke="rgb(0,0,0)"  stroke-width="1.0"/>
<line x1="194.3" y1="392.2" x2="197.6" y2="386.4" opacity="1.0" stroke="rgb(0,0,0)"  stroke-width="1.0"/>
<line x1="173.8" y1="381.1" x2="177.8" y2="374.2" opacity="1.0" stroke="rgb(0,0,0)"  stroke-width="1.0"/>
<line x1="175.8" y1="377.7" x2="164.1" y2="357.4" opacity="1.0" stroke="rgb(0,0,0)"  stroke-width="2.0"/>
<line x1="175.8" y1="377.7" x2="187.5" y2="357.4" opacity="1.0" stroke="rgb(0,0,0)"  stroke-width="2.0"/>
<line x1="175.8" y1="377.7" x2="155.5" y2="389.4" opacity="1.0" stroke="rgb(0,0,0)"  stroke-width="2.0"/>
<polygon points="333.346711 468.630382 356.458950 477.355437 352.458950 484.283640 " stroke-width="2.000000" fill="rgb(0,0,0)"  stroke="rgb(0,0,0)" />
<line x1="333.3" y1="505.0" x2="356.7" y2="505.0" opacity="1.0" stroke="rgb(0,0,0)"  stroke-width="2.0"/>
<line x1="333.3" y1="505.0" x2="345.0" y2="525.3" opacity="1.0" stroke="rgb(0,0,0)"  stroke-width="2.0"/>
<line x1="301.8" y1="523.2" x2="313.5" y2="543.5" opacity="1.0" stroke="rgb(0,0,0)"  stroke-width="2.0"/>
<line x1="301.8" y1="523.2" x2="290.1" y2="543.5" opacity="1.0" stroke="rgb(0,0,0)"  stroke-width="2.0"/>
<line x1="271.1" y1="534.1" x2="269.5" y2="534.1" opacity="1.0" stroke="rgb(0,0,0)"  stroke-width="1.0"/>
<line x1="271.8" y1="557.4" x2="268.9" y2="557.4" opacity="1.0" stroke="rgb(0,0,0)"  stroke-width="1.0"/>
<line x1="272.4" y1="580.7" x2="268.2" y2="580.7" opacity="1.0" stroke="rgb(0,0,0)"  stroke-width="1.0"/>
<line x1="273.0" y1="604.0" x2="267.6" y2="604.0" opacity="1.0" stroke="rgb(0,0,0)"  stroke-width="1.0"/>
<line x1="273.7" y1="627.3" x2="267.0" y2="627.3" opacity="1.0" stroke="rgb(0,0,0)"  stroke-width="1.0"/>
<line x1="274.3" y1="650.6" x2="266.3" y2="650.6" opacity="1.0" stroke="rgb(0,0,0)"  stroke-width="1.0"/>
<line x1="270.3" y1="650.6" x2="282.0" y2="670.8" opacity="1.0" stroke="rgb(0,0,0)"  stroke-width="2.0"/>
<line x1="270.3" y1="650.6" x2="293.7" y2="650.6" opacity="1.0" stroke="rgb(0,0,0)"  stroke-width="2.0"/>
<line x1="270.3" y1="650.6" x2="250.1" y2="662.3" opacity="1.0" stroke="rgb(0,0,0)"  stroke-width="2.0"/>
<polygon points="270.325104 468.630382 266.325104 444.252068 274.325104 444.252068 " stroke-width="2.000000" fill="rgb(0,0,0)"  stroke="rgb(0,0,0)" />
<line x1="238.8" y1="450.4" x2="227.1" y2="430.2" opacity="1.0" stroke="rgb(0,0,0)"  stroke-width="2.0"/>
<line x1="238.8" y1="450.4" x2="250.5" y2="430.2" opacity="1.0" stroke="rgb(0,0,0)"  stroke-width="2.0"/>
<line x1="207.3" y1="468.6" x2="187.1" y2="456.9" opacity="1.0" stroke="rgb(0,0,0)"  stroke-width="2.0"/>
<line x1="175.0" y1="518.3" x2="176.6" y2="518.3" opacity="1.0" stroke="rgb(0,0,0)"  stroke-width="1.0"/>
<line x1="174.4" y1="514.4" x2="177.2" y2="514.4" opacity="1.0" stroke="rgb(0,0,0)"  stroke-width="1.0"/>
<line x1="173.7" y1="510.5" x2="177.9" y2="510.5" opacity="1.0" stroke="rgb(0,0,0)"  stroke-width="1.0"/>
<line x1="173.1" y1="506.6" x2="178.5" y2="506.6" opacity="1.0" stroke="rgb(0,0,0)"  stroke-width="1.0"/>
<line x1="172.4" y1="502.7" x2="179.2" y2="502.7" opacity="1.0" stroke="rgb(0,0,0)"  stroke-width="1.0"/>
<line x1="171.8" y1="498.8" x2="179.8" y2="498.8" opacity="1.0" stroke="rgb(0,0,0)"  stroke-width="1.0"/>
<line x1="144.3" y1="505.0" x2="132.6" y2="484.8" opacity="1.0" stroke="rgb(0,0,0)"  stroke-width="2.0"/>
<line x1="144.3" y1="505.0" x2="156.0" y2="484.8" opacity="1.0" stroke="rgb(0,0,0)"  stroke-width="2.0"/>
<line x1="112.8" y1="523.2" x2="76.4" y2="523.2" opacity="1.0" stroke="rgb(0,0,0)"  stroke-width="2.0"/>
<line x1="112.8" y1="523.2" x2="76.4" y2="460.2" opacity="1.0" stroke="rgb(0,0,0)"  stroke-width="2.0"/>
<line x1="76.4" y1="523.2" x2="56.1" y2="511.5" opacity="1.0" stroke="rgb(0,0,0)"  stroke-width="2.0"/>
<line x1="76.4" y1="523.2" x2="76.4" y2="499.8" opacity="1.0" stroke="rgb(0,0,0)"  stroke-width="2.0"/>
<line x1="76.4" y1="523.2" x2="64.7" y2="543.5" opacity="1.0" stroke="rgb(0,0,0)"  stroke-width="2.0"/>
<line x1="76.4" y1="460.2" x2="76.4" y2="436.8" opacity="1.0" stroke="rgb(0,0,0)"  stroke-width="2.0"/>
<line x1="76.4" y1="460.2" x2="96.6" y2="448.5" opacity="1.0" stroke="rgb(0,0,0)"  stroke-width="2.0"/>
<line x1="76.4" y1="460.2" x2="53.0" y2="460.2" opacity="1.0" stroke="rgb(0,0,0)"  stroke-width="2.0"/>
<line x1="112.8" y1="559.6" x2="101.1" y2="579.8" opacity="1.0" stroke="rgb(0,0,0)"  stroke-width="2.0"/>
<line x1="112.8" y1="559.6" x2="89.4" y2="559.6" opacity="1.0" stroke="rgb(0,0,0)"  stroke-width="2.0"/>
<line x1="144.3" y1="577.8" x2="156.0" y2="598.0" opacity="1.0" stroke="rgb(0,0,0)"  stroke-width="2.0"/>
<line x1="144.3" y1="577.8" x2="132.6" y2="598.0" opacity="1.0" stroke="rgb(0,0,0)"  stroke-width="2.0"/>
<line x1="176.6" y1="574.1" x2="175.0" y2="574.1" opacity="1.0" stroke="rgb(0,0,0)"  stroke-width="1.0"/>
<line x1="177.2" y1="585.8" x2="174.4" y2="585.8" opacity="1.0" stroke="rgb(0,0,0)"  stroke-width="1.0"/>
<line x1="177.9" y1="597.4" x2="173.7" y2="597.4" opacity="1.0" stroke="rgb(0,0,0)"  stroke-width="1.0"/>
<line x1="178.5" y1="609.1" x2="173.1" y2="609.1" opacity="1.0" stroke="rgb(0,0,0)"  stroke-width="1.0"/>
<line x1="179.2" y1="620.7" x2="172.4" y2="620.7" opacity="1.0" stroke="rgb(0,0,0)"  stroke-width="1.0"/>
<line x1="179.8" y1="632.4" x2="171.8" y2="632.4" opacity="1.0" stroke="rgb(0,0,0)"  stroke-width="1.0"/>
<line x1="177.3" y1="629.8" x2="197.5" y2="641.5" opacity="1.0" stroke="rgb(0,0,0)"  stroke-width="2.0"/>
<line x1="174.3" y1="635.0" x2="194.5" y2="646.7" opacity="1.0" stroke="rgb(0,0,0)"  stroke-width="2.0"/>
<line x1="175.8" y1="632.4" x2="155.5" y2="644.1" opacity="1.0" stroke="rgb(0,0,0)"  stroke-width="2.0"/>
<line x1="144.3" y1="663.6" x2="144.3" y2="673.9" opacity="1.0" stroke="rgb(0,0,0)"  stroke-width="2.0"/>
<line x1="207.3" y1="577.8" x2="219.0" y2="598.0" opacity="1.0" stroke="rgb(0,0,0)"  stroke-width="2.0"/>
<line x1="207.3" y1="577.8" x2="195.6" y2="598.0" opacity="1.0" stroke="rgb(0,0,0)"  stroke-width="2.0"/>
<line x1="238.8" y1="559.6" x2="262.2" y2="559.6" opacity="1.0" stroke="rgb(0,0,0)"  stroke-width="2.0"/>
<line x1="238.8" y1="559.6" x2="250.5" y2="579.8" opacity="1.0" stroke="rgb(0,0,0)"  stroke-width="2.0"/>
<polygon points="238.814300 523.208695 366.857515 592.515678 362.857515 599.443881 " stroke-width="2.000000" fill="rgb(0,0,0)"  stroke="rgb(0,0,0)" />
<line x1="364.9" y1="596.0" x2="388.2" y2="596.0" opacity="1.0" stroke="rgb(0,0,0)"  stroke-width="2.0"/>
<line x1="364.9" y1="596.0" x2="376.6" y2="575.7" opacity="1.0" stroke="rgb(0,0,0)"  stroke-width="2.0"/>
<line x1="364.9" y1="596.0" x2="364.9" y2="619.4" opacity="1.0" stroke="rgb(0,0,0)"  stroke-width="2.0"/>
<line x1="364.9" y1="450.4" x2="401.2" y2="450.4" opacity="1.0" stroke="rgb(0,0,0)"  stroke-width="2.0"/>
<line x1="364.9" y1="450.4" x2="401.2" y2="513.5" opacity="1.0" stroke="rgb(0,0,0)"  stroke-width="2.0"/>
<line x1="401.2" y1="450.4" x2="421.5" y2="462.1" opacity="1.0" stroke="rgb(0,0,0)"  stroke-width="2.0"/>
<line x1="401.2" y1="450.4" x2="401.2" y2="473.8" opacity="1.0" stroke="rgb(0,0,0)"  stroke-width="2.0"/>
<line x1="401.2" y1="450.4" x2="412.9" y2="430.2" opacity="1.0" stroke="rgb(0,0,0)"  stroke-width="2.0"/>
<line x1="401.2" y1="513.5" x2="401.2" y2="536.8" opacity="1.0" stroke="rgb(0,0,0)"  stroke-width="2.0"/>
<line x1="401.2" y1="513.5" x2="381.0" y2="525.2" opacity="1.0" stroke="rgb(0,0,0)"  stroke-width="2.0"/>
<line x1="401.2" y1="513.5" x2="424.6" y2="513.5" opacity="1.0" stroke="rgb(0,0,0)"  stroke-width="2.0"/>
<line x1="486.6" y1="414.1" x2="556.9" y2="432.9" opacity="1.0" stroke="rgb(0,0,0)"  stroke-width="2.0"/>
<line x1="488.6" y1="418.6" x2="487.1" y2="419.0" opacity="1.0" stroke="rgb(0,0,0)"  stroke-width="1.0"/>
<line x1="490.3" y1="422.2" x2="487.5" y2="422.9" opacity="1.0" stroke="rgb(0,0,0)"  stroke-width="1.0"/>
<line x1="491.9" y1="425.8" x2="487.9" y2="426.8" opacity="1.0" stroke="rgb(0,0,0)"  stroke-width="1.0"/>
<line x1="493.5" y1="429.4" x2="488.3" y2="430.8" opacity="1.0" stroke="rgb(0,0,0)"  stroke-width="1.0"/>
<line x1="495.2" y1="433.0" x2="488.7" y2="434.7" opacity="1.0" stroke="rgb(0,0,0)"  stroke-width="1.0"/>
<line x1="496.8" y1="436.6" x2="489.1" y2="438.6" opacity="1.0" stroke="rgb(0,0,0)"  stroke-width="1.0"/>
<line x1="556.9" y1="432.9" x2="573.4" y2="416.4" opacity="1.0" stroke="rgb(0,0,0)"  stroke-width="2.0"/>
<line x1="556.9" y1="432.9" x2="573.4" y2="449.4" opacity="1.0" stroke="rgb(0,0,0)"  stroke-width="2.0"/>
<line x1="556.9" y1="432.9" x2="550.8" y2="455.5" opacity="1.0" stroke="rgb(0,0,0)"  stroke-width="2.0"/>
<line x1="595.2" y1="410.5" x2="617.8" y2="416.6" opacity="1.0" stroke="rgb(0,0,0)"  stroke-width="2.0"/>
<line x1="619.2" y1="421.3" x2="617.6" y2="421.5" opacity="1.0" stroke="rgb(0,0,0)"  stroke-width="1.0"/>
<line x1="620.3" y1="425.1" x2="617.5" y2="425.5" opacity="1.0" stroke="rgb(0,0,0)"  stroke-width="1.0"/>
<line x1="621.5" y1="428.9" x2="617.4" y2="429.4" opacity="1.0" stroke="rgb(0,0,0)"  stroke-width="1.0"/>
<line x1="622.6" y1="432.7" x2="617.2" y2="433.4" opacity="1.0" stroke="rgb(0,0,0)"  stroke-width="1.0"/>
<line x1="623.8" y1="436.4" x2="617.1" y2="437.3" opacity="1.0" stroke="rgb(0,0,0)"  stroke-width="1.0"/>
<line x1="624.9" y1="440.2" x2="617.0" y2="441.3" opacity="1.0" stroke="rgb(0,0,0)"  stroke-width="1.0"/>
<line x1="680.8" y1="416.6" x2="704.2" y2="416.6" opacity="1.0" stroke="rgb(0,0,0)"  stroke-width="2.0"/>
<line x1="680.8" y1="416.6" x2="692.5" y2="436.8" opacity="1.0" stroke="rgb(0,0,0)"  stroke-width="2.0"/>
<line x1="680.8" y1="380.2" x2="692.5" y2="359.9" opacity="1.0" stroke="rgb(0,0,0)"  stroke-width="2.0"/>
<line x1="685.7" y1="379.4" x2="685.7" y2="381.0" opacity="1.0" stroke="rgb(0,0,0)"  stroke-width="1.0"/>
<line x1="689.6" y1="378.7" x2="689.6" y2="381.6" opacity="1.0" stroke="rgb(0,0,0)"  stroke-width="1.0"/>
<line x1="693.5" y1="378.1" x2="693.5" y2="382.3" opacity="1.0" stroke="rgb(0,0,0)"  stroke-width="1.0"/>
<line x1="697.4" y1="377.5" x2="697.4" y2="382.9" opacity="1.0" stroke="rgb(0,0,0)"  stroke-width="1.0"/>
<line x1="701.3" y1="376.8" x2="701.3" y2="383.5" opacity="1.0" stroke="rgb(0,0,0)"  stroke-width="1.0"/>
<line x1="705.2" y1="376.2" x2="705.2" y2="384.2" opacity="1.0" stroke="rgb(0,0,0)"  stroke-width="1.0"/>
<line x1="712.0" y1="348.7" x2="722.4" y2="348.7" opacity="1.0" stroke="rgb(0,0,0)"  stroke-width="2.0"/>
<line x1="649.3" y1="362.0" x2="637.6" y2="341.7" opacity="1.0" stroke="rgb(0,0,0)"  stroke-width="2.0"/>
<line x1="651.0" y1="357.4" x2="652.4" y2="358.2" opacity="1.0" stroke="rgb(0,0,0)"  stroke-width="1.0"/>
<line x1="652.4" y1="353.7" x2="654.9" y2="355.1" opacity="1.0" stroke="rgb(0,0,0)"  stroke-width="1.0"/>
<line x1="653.8" y1="350.0" x2="657.4" y2="352.1" opacity="1.0" stroke="rgb(0,0,0)"  stroke-width="1.0"/>
<line x1="655.2" y1="346.3" x2="659.9" y2="349.0" opacity="1.0" stroke="rgb(0,0,0)"  stroke-width="1.0"/>
<line x1="656.6" y1="342.6" x2="662.4" y2="345.9" opacity="1.0" stroke="rgb(0,0,0)"  stroke-width="1.0"/>
<line x1="658.0" y1="338.9" x2="664.9" y2="342.9" opacity="1.0" stroke="rgb(0,0,0)"  stroke-width="1.0"/>
<line x1="618.1" y1="330.5" x2="607.7" y2="330.5" opacity="1.0" stroke="rgb(0,0,0)"  stroke-width="2.0"/>
<line x1="617.8" y1="380.2" x2="594.4" y2="380.2" opacity="1.0" stroke="rgb(0,0,0)"  stroke-width="2.0"/>
<polygon points="617.771580 380.189876 602.118322 361.077638 609.046525 357.077638 " stroke-width="2.000000" fill="rgb(0,0,0)"  stroke="rgb(0,0,0)" />
<line x1="574.9" y1="368.9" x2="569.7" y2="359.9" opacity="1.0" stroke="rgb(0,0,0)"  stroke-width="2.0"/>
<line x1="496.0" y1="378.9" x2="512.6" y2="362.4" opacity="1.0" stroke="rgb(0,0,0)"  stroke-width="2.0"/>
<polygon points="496.023183 378.906334 520.606102 381.352202 518.535550 389.079609 " stroke-width="2.000000" fill="rgb(0,0,0)"  stroke="rgb(0,0,0)" />
<line x1="518.4" y1="340.6" x2="515.7" y2="330.6" opacity="1.0" stroke="rgb(0,0,0)"  stroke-width="2.0"/>
<line x1="470.3" y1="353.2" x2="464.2" y2="330.6" opacity="1.0" stroke="rgb(0,0,0)"  stroke-width="2.0"/>
<line x1="473.2" y1="349.2" x2="474.3" y2="350.3" opacity="1.0" stroke="rgb(0,0,0)"  stroke-width="1.0"/>
<line x1="475.5" y1="346.0" x2="477.5" y2="348.0" opacity="1.0" stroke="rgb(0,0,0)"  stroke-width="1.0"/>
<line x1="477.8" y1="342.7" x2="480.7" y2="345.7" opacity="1.0" stroke="rgb(0,0,0)"  stroke-width="1.0"/>
<line x1="480.1" y1="339.5" x2="483.9" y2="343.4" opacity="1.0" stroke="rgb(0,0,0)"  stroke-width="1.0"/>
<line x1="482.4" y1="336.3" x2="487.2" y2="341.1" opacity="1.0" stroke="rgb(0,0,0)"  stroke-width="1.0"/>
<line x1="484.7" y1="333.1" x2="490.4" y2="338.8" opacity="1.0" stroke="rgb(0,0,0)"  stroke-width="1.0"/>
<line x1="470.1" y1="308.8" x2="477.4" y2="301.5" opacity="1.0" stroke="rgb(0,0,0)"  stroke-width="2.0"/>
<line x1="466.7" y1="162.5" x2="486.9" y2="174.2" opacity="1.0" stroke="rgb(0,0,0)"  stroke-width="2.0"/>
<line x1="509.4" y1="174.2" x2="529.7" y2="162.5" opacity="1.0" stroke="rgb(0,0,0)"  stroke-width="2.0"/>
<line x1="529.7" y1="162.5" x2="541.4" y2="142.2" opacity="1.0" stroke="rgb(0,0,0)"  stroke-width="2.0"/>
<line x1="529.7" y1="162.5" x2="518.0" y2="142.2" opacity="1.0" stroke="rgb(0,0,0)"  stroke-width="2.0"/>
<line x1="529.7" y1="162.5" x2="549.9" y2="174.2" opacity="1.0" stroke="rgb(0,0,0)"  stroke-width="2.0"/>
<line x1="403.6" y1="126.1" x2="403.6" y2="162.5" opacity="1.0" stroke="rgb(0,0,0)"  stroke-width="2.0"/>
<line x1="403.6" y1="162.5" x2="435.1" y2="180.7" opacity="1.0" stroke="rgb(0,0,0)"  stroke-width="2.0"/>
<line x1="412.4" y1="159.2" x2="433.6" y2="171.4" opacity="1.0" stroke="rgb(0,0,0)"  stroke-width="2.0"/>
<line x1="435.1" y1="180.7" x2="466.7" y2="162.5" opacity="1.0" stroke="rgb(0,0,0)"  stroke-width="2.0"/>
<line x1="466.7" y1="162.5" x2="466.7" y2="126.1" opacity="1.0" stroke="rgb(0,0,0)"  stroke-width="2.0"/>
<line x1="459.5" y1="156.5" x2="459.5" y2="132.1" opacity="1.0" stroke="rgb(0,0,0)"  stroke-width="2.0"/>
<line x1="466.7" y1="126.1" x2="435.1" y2="107.9" opacity="1.0" stroke="rgb(0,0,0)"  stroke-width="2.0"/>
<line x1="435.1" y1="107.9" x2="403.6" y2="126.1" opacity="1.0" stroke="rgb(0,0,0)"  stroke-width="2.0"/>
<line x1="433.6" y1="117.1" x2="412.4" y2="129.3" opacity="1.0" stroke="rgb(0,0,0)"  stroke-width="2.0"/>
<line x1="425.7" y1="397.7" x2="435.1" y2="362.6" opacity="1.0" stroke="rgb(0,0,0)"  stroke-width="2.0"/>
<line x1="435.1" y1="362.6" x2="470.3" y2="353.2" opacity="1.0" stroke="rgb(0,0,0)"  stroke-width="2.0"/>
<line x1="470.3" y1="353.2" x2="496.0" y2="378.9" opacity="1.0" stroke="rgb(0,0,0)"  stroke-width="2.0"/>
<line x1="496.0" y1="378.9" x2="486.6" y2="414.1" opacity="1.0" stroke="rgb(0,0,0)"  stroke-width="2.0"/>
<line x1="486.6" y1="414.1" x2="464.0" y2="420.1" opacity="1.0" stroke="rgb(0,0,0)"  stroke-width="2.0"/>
<line x1="442.3" y1="414.3" x2="425.7" y2="397.7" opacity="1.0" stroke="rgb(0,0,0)"  stroke-width="2.0"/>
<line x1="333.3" y1="395.9" x2="364.9" y2="414.1" opacity="1.0" stroke="rgb(0,0,0)"  stroke-width="2.0"/>
<line x1="364.9" y1="414.1" x2="364.9" y2="450.4" opacity="1.0" stroke="rgb(0,0,0)"  stroke-width="2.0"/>
<line x1="364.9" y1="450.4" x2="333.3" y2="468.6" opacity="1.0" stroke="rgb(0,0,0)"  stroke-width="2.0"/>
<line x1="333.3" y1="468.6" x2="301.8" y2="450.4" opacity="1.0" stroke="rgb(0,0,0)"  stroke-width="2.0"/>
<line x1="301.8" y1="450.4" x2="301.8" y2="414.1" opacity="1.0" stroke="rgb(0,0,0)"  stroke-width="2.0"/>
<line x1="301.8" y1="414.1" x2="333.3" y2="395.9" opacity="1.0" stroke="rgb(0,0,0)"  stroke-width="2.0"/>
<line x1="270.3" y1="505.0" x2="270.3" y2="468.6" opacity="1.0" stroke="rgb(0,0,0)"  stroke-width="2.0"/>
<line x1="270.3" y1="468.6" x2="301.8" y2="450.4" opacity="1.0" stroke="rgb(0,0,0)"  stroke-width="2.0"/>
<line x1="333.3" y1="468.6" x2="333.3" y2="505.0" opacity="1.0" stroke="rgb(0,0,0)"  stroke-width="2.0"/>
<line x1="333.3" y1="505.0" x2="301.8" y2="523.2" opacity="1.0" stroke="rgb(0,0,0)"  stroke-width="2.0"/>
<line x1="301.8" y1="523.2" x2="270.3" y2="505.0" opacity="1.0" stroke="rgb(0,0,0)"  stroke-width="2.0"/>
<line x1="207.3" y1="505.0" x2="207.3" y2="468.6" opacity="1.0" stroke="rgb(0,0,0)"  stroke-width="2.0"/>
<line x1="214.5" y1="499.0" x2="214.5" y2="474.6" opacity="1.0" stroke="rgb(0,0,0)"  stroke-width="2.0"/>
<line x1="207.3" y1="468.6" x2="238.8" y2="450.4" opacity="1.0" stroke="rgb(0,0,0)"  stroke-width="2.0"/>
<line x1="238.8" y1="450.4" x2="270.3" y2="468.6" opacity="1.0" stroke="rgb(0,0,0)"  stroke-width="2.0"/>
<line x1="270.3" y1="505.0" x2="238.8" y2="523.2" opacity="1.0" stroke="rgb(0,0,0)"  stroke-width="2.0"/>
<line x1="238.8" y1="523.2" x2="207.3" y2="505.0" opacity="1.0" stroke="rgb(0,0,0)"  stroke-width="2.0"/>
<line x1="207.3" y1="577.8" x2="238.8" y2="559.6" opacity="1.0" stroke="rgb(0,0,0)"  stroke-width="2.0"/>
<line x1="238.8" y1="559.6" x2="238.8" y2="523.2" opacity="1.0" stroke="rgb(0,0,0)"  stroke-width="2.0"/>
<line x1="207.3" y1="505.0" x2="175.8" y2="523.2" opacity="1.0" stroke="rgb(0,0,0)"  stroke-width="2.0"/>
<line x1="175.8" y1="523.2" x2="175.8" y2="559.6" opacity="1.0" stroke="rgb(0,0,0)"  stroke-width="2.0"/>
<line x1="175.8" y1="559.6" x2="207.3" y2="577.8" opacity="1.0" stroke="rgb(0,0,0)"  stroke-width="2.0"/>
<line x1="144.3" y1="505.0" x2="175.8" y2="523.2" opacity="1.0" stroke="rgb(0,0,0)"  stroke-width="2.0"/>
<line x1="175.8" y1="559.6" x2="144.3" y2="577.8" opacity="1.0" stroke="rgb(0,0,0)"  stroke-width="2.0"/>
<line x1="144.3" y1="577.8" x2="112.8" y2="559.6" opacity="1.0" stroke="rgb(0,0,0)"  stroke-width="2.0"/>
<line x1="112.8" y1="559.6" x2="112.8" y2="523.2" opacity="1.0" stroke="rgb(0,0,0)"  stroke-width="2.0"/>
<line x1="112.8" y1="523.2" x2="144.3" y2="505.0" opacity="1.0" stroke="rgb(0,0,0)"  stroke-width="2.0"/>
<line x1="638.0" y1="428.3" x2="617.8" y2="416.6" opacity="1.0" stroke="rgb(0,0,0)"  stroke-width="2.0"/>
<line x1="617.8" y1="416.6" x2="617.8" y2="380.2" opacity="1.0" stroke="rgb(0,0,0)"  stroke-width="2.0"/>
<line x1="617.8" y1="380.2" x2="649.3" y2="362.0" opacity="1.0" stroke="rgb(0,0,0)"  stroke-width="2.0"/>
<line x1="649.3" y1="362.0" x2="680.8" y2="380.2" opacity="1.0" stroke="rgb(0,0,0)"  stroke-width="2.0"/>
<line x1="680.8" y1="380.2" x2="680.8" y2="416.6" opacity="1.0" stroke="rgb(0,0,0)"  stroke-width="2.0"/>
<line x1="680.8" y1="416.6" x2="660.5" y2="428.3" opacity="1.0" stroke="rgb(0,0,0)"  stroke-width="2.0"/>
<text x="120.089117" y="481.505120" fill="rgb(191,191,191)" stroke-width='0' font-weight='bold' font-size="16" >H</text>
<text x="282.517875" y="690.068896" fill="rgb(191,191,191)" stroke-width='0' font-weight='bold' font-size="16" >H</text>
<text x="300.710646" y="658.558093" fill="rgb(191,191,191)" stroke-width='0' font-weight='bold' font-size="16" >H</text>
<text x="232.814300" y="676.750864" fill="rgb(191,191,191)" stroke-width='0' font-weight='bold' font-size="16" >H</text>
<text x="264.325104" y="440.244839" fill="rgb(191,191,191)" stroke-width='0' font-weight='bold' font-size="16" >H</text>
<text x="214.621529" y="426.926807" fill="rgb(191,191,191)" stroke-width='0' font-weight='bold' font-size="16" >H</text>
<text x="251.007071" y="426.926807" fill="rgb(191,191,191)" stroke-width='0' font-weight='bold' font-size="16" >H</text>
<text x="169.792692" y="458.437611" fill="rgb(191,191,191)" stroke-width='0' font-weight='bold' font-size="16" >H</text>
<text x="169.792692" y="494.823153" fill="rgb(191,191,191)" stroke-width='0' font-weight='bold' font-size="16" >H</text>
<text x="277.643136" y="562.719499" fill="rgb(191,191,191)" stroke-width='0' font-weight='bold' font-size="16" >H</text>
<text x="156.474659" y="481.505120" fill="rgb(191,191,191)" stroke-width='0' font-weight='bold' font-size="16" >H</text>
<text x="38.874738" y="513.015924" fill="rgb(191,191,191)" stroke-width='0' font-weight='bold' font-size="16" >H</text>
<text x="70.385542" y="494.823153" fill="rgb(191,191,191)" stroke-width='0' font-weight='bold' font-size="16" >H</text>
<text x="52.192771" y="562.719499" fill="rgb(191,191,191)" stroke-width='0' font-weight='bold' font-size="16" >H</text>
<text x="70.385542" y="431.801545" fill="rgb(191,191,191)" stroke-width='0' font-weight='bold' font-size="16" >H</text>
<text x="101.896346" y="449.994316" fill="rgb(191,191,191)" stroke-width='0' font-weight='bold' font-size="16" >H</text>
<text x="34.000000" y="468.187087" fill="rgb(191,191,191)" stroke-width='0' font-weight='bold' font-size="16" >H</text>
<text x="88.578313" y="599.105041" fill="rgb(191,191,191)" stroke-width='0' font-weight='bold' font-size="16" >H</text>
<text x="259.450365" y="422.052068" fill="rgb(191,191,191)" stroke-width='0' font-weight='bold' font-size="16" >H</text>
<text x="460.659789" y="243.245744" fill="rgb(191,191,191)" stroke-width='0' font-weight='bold' font-size="16" >H</text>
<text x="366.127377" y="225.052973" fill="rgb(191,191,191)" stroke-width='0' font-weight='bold' font-size="16" >H</text>
<text x="460.659789" y="279.631286" fill="rgb(191,191,191)" stroke-width='0' font-weight='bold' font-size="16" >H</text>
<text x="395.533127" y="384.519285" fill="rgb(191,191,191)" stroke-width='0' font-weight='bold' font-size="16" >H</text>
<text x="384.585979" y="396.323605" fill="rgb(191,191,191)" stroke-width='0' font-weight='bold' font-size="16" >H</text>
<text x="354.108249" y="385.977810" fill="rgb(191,191,191)" stroke-width='0' font-weight='bold' font-size="16" >H</text>
<text x="309.153940" y="372.348493" fill="rgb(191,191,191)" stroke-width='0' font-weight='bold' font-size="16" >H</text>
<text x="363.732253" y="340.837690" fill="rgb(191,191,191)" stroke-width='0' font-weight='bold' font-size="16" >H</text>
<text x="70.385542" y="567.594237" fill="rgb(191,191,191)" stroke-width='0' font-weight='bold' font-size="16" >H</text>
<text x="277.643136" y="390.541265" fill="rgb(191,191,191)" stroke-width='0' font-weight='bold' font-size="16" >H</text>
<text x="151.599921" y="354.155722" fill="rgb(191,191,191)" stroke-width='0' font-weight='bold' font-size="16" >H</text>
<text x="187.985463" y="354.155722" fill="rgb(191,191,191)" stroke-width='0' font-weight='bold' font-size="16" >H</text>
<text x="138.281888" y="403.859297" fill="rgb(191,191,191)" stroke-width='0' font-weight='bold' font-size="16" >H</text>
<text x="358.857515" y="494.823153" fill="rgb(191,191,191)" stroke-width='0' font-weight='bold' font-size="16" >H</text>
<text x="363.732253" y="513.015924" fill="rgb(191,191,191)" stroke-width='0' font-weight='bold' font-size="16" >H</text>
<text x="345.539482" y="544.526728" fill="rgb(191,191,191)" stroke-width='0' font-weight='bold' font-size="16" >H</text>
<text x="314.028679" y="562.719499" fill="rgb(191,191,191)" stroke-width='0' font-weight='bold' font-size="16" >H</text>
<text x="593.578809" y="356.679073" fill="rgb(191,191,191)" stroke-width='0' font-weight='bold' font-size="16" >H</text>
<text x="541.480111" y="476.032346" fill="rgb(191,191,191)" stroke-width='0' font-weight='bold' font-size="16" >H</text>
<text x="616.520847" y="460.649677" fill="rgb(191,191,191)" stroke-width='0' font-weight='bold' font-size="16" >H</text>
<text x="711.178730" y="424.575419" fill="rgb(191,191,191)" stroke-width='0' font-weight='bold' font-size="16" >H</text>
<text x="692.985959" y="456.086222" fill="rgb(191,191,191)" stroke-width='0' font-weight='bold' font-size="16" >H</text>
<text x="711.178730" y="388.189876" fill="rgb(191,191,191)" stroke-width='0' font-weight='bold' font-size="16" >H</text>
<text x="729.371501" y="356.679073" fill="rgb(191,191,191)" stroke-width='0' font-weight='bold' font-size="16" >H</text>
<text x="661.475155" y="338.486302" fill="rgb(191,191,191)" stroke-width='0' font-weight='bold' font-size="16" >H</text>
<text x="588.704071" y="338.486302" fill="rgb(191,191,191)" stroke-width='0' font-weight='bold' font-size="16" >H</text>
<text x="576.625845" y="466.615075" fill="rgb(191,191,191)" stroke-width='0' font-weight='bold' font-size="16" >H</text>
<text x="557.193267" y="356.679073" fill="rgb(191,191,191)" stroke-width='0' font-weight='bold' font-size="16" >H</text>
<text x="525.168918" y="396.323605" fill="rgb(191,191,191)" stroke-width='0' font-weight='bold' font-size="16" >H</text>
<text x="506.334376" y="326.032135" fill="rgb(191,191,191)" stroke-width='0' font-weight='bold' font-size="16" >H</text>
<text x="490.023183" y="335.449406" fill="rgb(191,191,191)" stroke-width='0' font-weight='bold' font-size="16" >H</text>
<text x="480.605912" y="300.303671" fill="rgb(191,191,191)" stroke-width='0' font-weight='bold' font-size="16" >H</text>
<text x="541.874168" y="138.963855" fill="rgb(191,191,191)" stroke-width='0' font-weight='bold' font-size="16" >H</text>
<text x="505.488625" y="138.963855" fill="rgb(191,191,191)" stroke-width='0' font-weight='bold' font-size="16" >H</text>
<text x="555.192200" y="188.667430" fill="rgb(191,191,191)" stroke-width='0' font-weight='bold' font-size="16" >H</text>
<text x="377.050286" y="572.468975" fill="rgb(191,191,191)" stroke-width='0' font-weight='bold' font-size="16" >H</text>
<text x="156.474659" y="617.297812" fill="rgb(191,191,191)" stroke-width='0' font-weight='bold' font-size="16" >H</text>
<text x="120.089117" y="617.297812" fill="rgb(191,191,191)" stroke-width='0' font-weight='bold' font-size="16" >H</text>
<text x="138.281888" y="694.943635" fill="rgb(191,191,191)" stroke-width='0' font-weight='bold' font-size="16" >H</text>
<text x="219.496267" y="617.297812" fill="rgb(191,191,191)" stroke-width='0' font-weight='bold' font-size="16" >H</text>
<text x="183.110725" y="617.297812" fill="rgb(191,191,191)" stroke-width='0' font-weight='bold' font-size="16" >H</text>
<text x="269.199842" y="567.594237" fill="rgb(191,191,191)" stroke-width='0' font-weight='bold' font-size="16" >H</text>
<text x="251.007071" y="599.105041" fill="rgb(191,191,191)" stroke-width='0' font-weight='bold' font-size="16" >H</text>
<text x="395.243057" y="603.979779" fill="rgb(191,191,191)" stroke-width='0' font-weight='bold' font-size="16" >H</text>
<text x="366.127377" y="188.667430" fill="rgb(191,191,191)" stroke-width='0' font-weight='bold' font-size="16" >H</text>
<text x="358.857515" y="640.365321" fill="rgb(191,191,191)" stroke-width='0' font-weight='bold' font-size="16" >H</text>
<text x="426.753861" y="476.630382" fill="rgb(191,191,191)" stroke-width='0' font-weight='bold' font-size="16" >H</text>
<text x="395.243057" y="494.823153" fill="rgb(191,191,191)" stroke-width='0' font-weight='bold' font-size="16" >H</text>
<text x="413.435828" y="426.926807" fill="rgb(191,191,191)" stroke-width='0' font-weight='bold' font-size="16" >H</text>
<text x="395.243057" y="557.844760" fill="rgb(191,191,191)" stroke-width='0' font-weight='bold' font-size="16" >H</text>
<text x="363.732253" y="539.651989" fill="rgb(191,191,191)" stroke-width='0' font-weight='bold' font-size="16" >H</text>
<text x="431.628599" y="521.459218" fill="rgb(191,191,191)" stroke-width='0' font-weight='bold' font-size="16" >H</text>
<text x="490.023183" y="457.197803" fill="rgb(191,191,191)" stroke-width='0' font-weight='bold' font-size="16" >H</text>
<text x="492.170593" y="115.896346" fill="rgb(255,12,12)" stroke-width='0' font-weight='bold' font-size="16" >O</text>
<text x="366.127377" y="297.824057" fill="rgb(255,12,12)" stroke-width='0' font-weight='bold' font-size="16" >O</text>
<text x="429.148985" y="297.824057" fill="rgb(12,12,255)" stroke-width='0' font-weight='bold' font-size="16" >N</text>
<text x="394.003250" y="431.469340" fill="rgb(255,12,12)" stroke-width='0' font-weight='bold' font-size="16" >O</text>
<text x="454.877448" y="326.032135" fill="rgb(255,12,12)" stroke-width='0' font-weight='bold' font-size="16" >O</text>
<text x="692.985959" y="356.679073" fill="rgb(255,12,12)" stroke-width='0' font-weight='bold' font-size="16" >O</text>
<text x="625.089613" y="338.486302" fill="rgb(255,12,12)" stroke-width='0' font-weight='bold' font-size="16" >O</text>
<text x="575.386038" y="388.189876" fill="rgb(255,12,12)" stroke-width='0' font-weight='bold' font-size="16" >O</text>
<text x="515.751647" y="361.177870" fill="rgb(255,12,12)" stroke-width='0' font-weight='bold' font-size="16" >O</text>
<text x="492.170593" y="188.667430" fill="rgb(255,12,12)" stroke-width='0' font-weight='bold' font-size="16" >O</text>
<text x="473.977822" y="48.000000" fill="rgb(191,191,191)" stroke-width='0' font-weight='bold' font-size="16" >H</text>
<text x="455.785050" y="79.510804" fill="rgb(191,191,191)" stroke-width='0' font-weight='bold' font-size="16" >H</text>
<text x="523.681396" y="61.318033" fill="rgb(191,191,191)" stroke-width='0' font-weight='bold' font-size="16" >H</text>
<text x="429.148985" y="79.510804" fill="rgb(191,191,191)" stroke-width='0' font-weight='bold' font-size="16" >H</text>
<text x="366.127377" y="115.896346" fill="rgb(191,191,191)" stroke-width='0' font-weight='bold' font-size="16" >H</text>
<text x="201.303496" y="658.558093" fill="rgb(255,12,12)" stroke-width='0' font-weight='bold' font-size="16" >O</text>
<text x="138.281888" y="658.558093" fill="rgb(255,12,12)" stroke-width='0' font-weight='bold' font-size="16" >O</text>
<text x="445.460177" y="431.469340" fill="rgb(255,12,12)" stroke-width='0' font-weight='bold' font-size="16" >O</text>
<text x="576.625845" y="415.158147" fill="rgb(255,12,12)" stroke-width='0' font-weight='bold' font-size="16" >O</text>
<text x="643.282384" y="442.768190" fill="rgb(255,12,12)" stroke-width='0' font-weight='bold' font-size="16" >O</text>
</svg>
</g>
<text font-size="18.000000" fill ="black" font-family="sans-serif"
x="10.000000" y="20.000000" ></text>
</svg>
